# AST/ASF file generated using VICON BodyLanguage
# -----------------------------------------------
:version 1.10
:name VICON
:units
  mass 1.0
  length 0.45
  angle deg
:documentation
   .ast/.asf automatically generated from VICON data using
   VICON BodyBuilder and BodyLanguage model FoxedUp or BRILLIANT.MOD
:root
   order TX TY TZ RX RY RZ
   axis XYZ
   position 0 0 0  
   orientation 0 0 0 
:bonedata
  begin
     id 1 
     name lhipjoint
     direction 0.661853 -0.702389 0.261917 
     length 2.64193 
     axis 0 0 0  XYZ
  end
  begin
     id 2 
     name lfemur
     direction 0.34202 -0.939693 0  
     length 7.01722  
     axis 0 0 20  XYZ
    dof rx ry rz
    limits (-160.0 20.0)
           (-70.0 70.0)
           (-60.0 70.0)
  end
  begin
     id 3 
     name ltibia
     direction 0.34202 -0.939693 0   
     length 8.25008   
     axis 0 0 20   XYZ
    dof rx
    limits (-10.0 170.0)
  end
  begin
     id 4 
     name lfoot
     direction 0.0709916 -0.195048 0.978221   
     length 2.31941   
     axis -90 7.62852e-016 20   XYZ
    dof rx rz
    limits (-45.0 90.0)
           (-70.0 20.0)
  end
  begin
     id 5 
     name ltoes
     direction 1.53586e-011 -4.22017e-011 1   
     length 1.16486   
     axis -90 7.62852e-016 20   XYZ
    dof rx
    limits (-90.0 20.0)
  end
  begin
     id 6 
     name rhipjoint
     direction -0.638185 -0.721362 0.268992   
     length 2.57244  
     axis 0 0 0  XYZ 
  end
  begin
     id 7 
     name rfemur
     direction -0.34202 -0.939693 0   
     length 7.07017   
     axis 0 0 -20   XYZ
    dof rx ry rz
    limits (-160.0 20.0)
           (-70.0 70.0)
           (-70.0 60.0)
  end
  begin
     id 8 
     name rtibia
     direction -0.34202 -0.939693 0   
     length 8.20386   
     axis 0 0 -20   XYZ
    dof rx
    limits (-10.0 170.0)
 end
 begin
     id 9 
     name rfoot
     direction -0.0822429 -0.225961 0.970658   
     length 2.32215  
     axis -90 -7.62852e-016 -20   XYZ
    dof rx rz
    limits (-45.0 90.0)
           (-20.0 70.0)
  end
  begin
     id 10 
     name rtoes
     direction -1.53597e-011 -4.21689e-011 1   
     length 1.16333   
     axis -90 -7.62852e-016 -20   XYZ
    dof rx
    limits (-90.0 20.0)
  end
  begin
     id 11 
     name lowerback
     direction -0.0131557 0.998589 -0.0514484   
     length 2.14993   
     axis 0 0 0   XYZ
    dof rx ry rz
    limits (-20.0 45.0)
           (-30.0 30.0)
           (-30.0 30.0)
  end
  begin
     id 12 
     name upperback
     direction -0.000776481 0.999993 0.00352685   
     length 2.15301   
     axis 0 0 0   XYZ
    dof rx ry rz
    limits (-20.0 45.0)
           (-30.0 30.0)
           (-30.0 30.0)
  end
  begin
     id 13 
     name thorax
     direction 0.00438186 0.999609 0.0276143   
     length 2.15424   
     axis 0 0 0   XYZ
    dof rx ry rz
    limits (-20.0 45.0)
           (-30.0 30.0)
           (-30.0 30.0)
  end
  begin
     id 14 
     name lowerneck
     direction -0.0488006 0.998094 0.0377807   
     length 1.90481   
     axis 0 0 0   XYZ
    dof rx ry rz
    limits (-20.0 45.0)
           (-30.0 30.0)
           (-30.0 30.0)
  end
  begin
     id 15 
     name upperneck
     direction 0.0443769 0.990702 -0.12861   
     length 1.91305   
     axis 0 0 0   XYZ
    dof rx ry rz
    limits (-20.0 45.0)
           (-30.0 30.0)
           (-30.0 30.0)
  end
  begin
     id 16
     name head
     direction 0.0165599 0.998647 -0.0492982  
     length 1.92369  
     axis 0 0 0   XYZ
    dof rx ry rz
    limits (-20.0 45.0)
           (-30.0 30.0)
           (-30.0 30.0)
  end
  begin
     id 17 
     name lclavicle
     direction 0.911936 0.410197 -0.0105506  
     length 3.52622  
     axis 0 0 0   XYZ
    dof ry rz
    limits (-20.0 10.0)
           (0.0 20.0)
  end
  begin
     id 18 
     name lhumerus
     direction 1 -4.48974e-011 -2.48591e-028   
     length 5.47651   
     axis 180 -30 -90   XYZ
    dof rx ry rz
    limits (-60.0 90.0)
           (-90.0 90.0)
           (-90.0 90.0)
  end
  begin
     id 19
     name lradius
     direction 1 -4.48938e-011 -4.40099e-027   
     length 3.09058   
     axis 180 -30 -90   XYZ
    dof rx
    limits (-10.0 170.0)
  end
  begin
     id 20
     name lwrist
     direction 1 -4.49042e-011 -2.99852e-027   
     length 1.54529   
     axis 1.95339e-015 90 90   XYZ
    dof ry
    limits (-180.0 0.0)
 end
  begin
     id 21 
     name lhand
     direction 1 -4.48815e-011 -5.98193e-027   
     length 0.771611   
     axis 3.82337e-015 90 90   XYZ
    dof rx rz
    limits (-90.0 90.0)
           (-45.0 45.0)
  end
  begin
     id 22 
     name lfingers
     direction 1 -4.49034e-011 -1.1993e-026   
     length 0.622093   
     axis 7.64668e-015 90 90   XYZ
    dof rx
    limits (0.0 90.0)
  end
  begin
     id 23
     name lthumb
     direction 0.707107 -6.34867e-011 0.707107   
     length 0.893204   
     axis -90 45 -1.62303e-014   XYZ
    dof rx rz
    limits (-45.0 45.0)
           (-45.0 45.0)
  end
  begin
     id 24 
     name rclavicle
     direction -0.93442 0.355634 -0.0195692   
     length 3.62463  
     axis 0 0 0   XYZ 
    dof ry rz
    limits (-10.0 20.0)
           (-20.0 0.0)
  end
  begin
     id 25 
     name rhumerus
     direction -1 -4.48957e-011 -1.19147e-027  
     length 5.14182   
     axis 180 30 90   XYZ
    dof rx ry rz
    limits (-90.0 60.0)
           (-90.0 90.0)
           (-90.0 90.0)
  end
  begin
     id 26 
     name rradius
     direction -1 -4.48952e-011 -3.81062e-027   
     length 3.35565   
     axis 180 30 90   XYZ
    dof rx
    limits (-10.0 170.0)
  end
  begin
     id 27 
     name rwrist
     direction -1 -4.48973e-011 -2.99621e-027   
     length 1.67782   
     axis 1.95339e-015 -90 -90   XYZ
    dof ry
    limits (-180.0 0.0)
  end
  begin
     id 28
     name rhand
     direction -1 -4.48895e-011 -5.98727e-027   
     length 0.801042   
     axis 3.82337e-015 -90 -90   XYZ
    dof rx rz
    limits (-90.0 90.0)
           (-45.0 45.0)
  end
  begin
     id 29
     name rfingers
     direction -1 -4.49065e-011 -1.19972e-026   
     length 0.645821   
     axis 7.64668e-015 -90 -90   XYZ
    dof rx
    limits (0.0 90.0)
  end
  begin
     id 30
     name rthumb
     direction -0.707107 -6.34957e-011 0.707107   
     length 0.927273   
     axis -90 -45 1.62303e-014   XYZ
    dof rx rz
    limits (-45.0 45.0)
           (-45.0 45.0)
  end
:hierarchy
  begin
    root lhipjoint rhipjoint lowerback
    lhipjoint lfemur
    lfemur ltibia
    ltibia lfoot
    lfoot ltoes
    rhipjoint rfemur
    rfemur rtibia
    rtibia rfoot
    rfoot rtoes
    lowerback upperback
    upperback thorax
    thorax lowerneck lclavicle rclavicle
    lowerneck upperneck
    upperneck head
    lclavicle lhumerus
    lhumerus lradius
    lradius lwrist
    lwrist lhand lthumb
    lhand lfingers
    rclavicle rhumerus
    rhumerus rradius
    rradius rwrist
    rwrist rhand rthumb
    rhand rfingers
  end

#!OML:ASF E:\Style4\Style4.ASF
:FULLY-SPECIFIED
:DEGREES
117
root -1.5826 17.9897 -1.04398 4.90678 -3.29066 -0.580928
lowerback 10.6028 2.33515 -0.493515
upperback 9.88436 3.13989 -3.8287
thorax 4.64201 1.68638 -3.93267
lowerneck 1.28491 -3.4356 -6.86226
upperneck 28.6279 -4.19498 0.329335
head 8.919 -2.60097 1.00432
rclavicle 4.25399e-014 -4.45278e-014
rhumerus -3.05194 31.32 9.27278
rradius 34.1548
rwrist -45.6609
rhand 10.1784 0.225814
rfingers 7.12502
rthumb 35.2955 -26.2607
lclavicle 4.25399e-014 -4.45278e-014
lhumerus 28.0398 42.5445 13.859
lradius 117.129
lwrist 72.478
lhand 26.5476 33.7634
lfingers 7.12502
lthumb 50.5781 54.6773
rfemur -15.6501 -2.65071 26.2094
rtibia 24.4105
rfoot -14.4876 -15.8971
rtoes -1.01849
lfemur -15.259 -0.0586803 -11.8994
ltibia 25.8702
lfoot -14.6457 13.9289
ltoes -18.6389
118
root -1.57024 17.9858 -1.05664 4.94655 -2.74518 -0.521349
lowerback 10.8112 2.46172 -0.404447
upperback 9.96627 3.30918 -3.6855
thorax 4.62414 1.77352 -3.85006
lowerneck 1.4139 -3.70809 -7.06806
upperneck 28.6181 -4.55 0.331427
head 8.91558 -2.78023 1.01656
rclavicle -2.38542e-015 -3.33958e-014
rhumerus -2.57171 30.822 9.66151
rradius 33.7754
rwrist -44.9895
rhand 10.3821 0.352634
rfingers 7.12502
rthumb 35.4887 -26.0879
lclavicle -2.38542e-015 -3.33958e-014
lhumerus 28.9255 43.2488 13.5531
lradius 116.899
lwrist 72.3937
lhand 26.9047 33.8684
lfingers 7.12502
lthumb 50.9039 54.6033
rfemur -15.8927 -2.89554 26.1231
rtibia 24.6969
rfoot -14.6349 -16.2072
rtoes -1.03455
lfemur -15.541 -0.240479 -11.991
ltibia 25.9208
lfoot -14.546 13.6525
ltoes -18.2791
119
root -1.55871 17.979 -1.07052 4.98696 -2.17382 -0.513737
lowerback 11.0652 2.57543 -0.231792
upperback 10.0257 3.46587 -3.54622
thorax 4.56185 1.85914 -3.82105
lowerneck 1.50491 -3.96848 -7.20064
upperneck 28.6197 -4.87509 0.268721
head 8.91854 -2.94395 0.995577
rclavicle -2.82274e-014 2.54444e-014
rhumerus -2.06565 30.4056 9.99075
rradius 33.4102
rwrist -44.2887
rhand 10.5553 0.343677
rfingers 7.12502
rthumb 35.6529 -26.0574
lclavicle -2.82274e-014 2.54444e-014
lhumerus 29.7617 43.9017 13.2264
lradius 116.704
lwrist 72.3847
lhand 26.6208 33.7651
lfingers 7.12502
lthumb 50.6449 54.6425
rfemur -16.1162 -3.11512 26.0991
rtibia 24.9613
rfoot -14.7661 -16.4916
rtoes -0.858211
lfemur -15.8572 -0.442809 -12.0118
ltibia 26.0156
lfoot -14.3237 13.3508
ltoes -18.3136
120
root -1.54448 17.9746 -1.08413 4.99764 -1.56788 -0.477189
lowerback 11.3155 2.63617 -0.0168688
upperback 10.0865 3.55887 -3.47751
thorax 4.50747 1.91843 -3.88667
lowerneck 1.69287 -4.18977 -7.20226
upperneck 28.5383 -5.15413 0.160886
head 8.8663 -3.07697 0.943487
rclavicle 6.32135e-014 -4.53229e-014
rhumerus -1.52809 29.9743 10.1365
rradius 33.0573
rwrist -43.5944
rhand 10.6997 0.134932
rfingers 7.12502
rthumb 35.7897 -26.233
lclavicle 6.32135e-014 -4.53229e-014
lhumerus 30.3753 44.6043 12.6345
lradius 116.621
lwrist 72.5279
lhand 25.9675 33.4664
lfingers 7.12502
lthumb 50.0479 54.664
rfemur -16.2984 -3.28895 26.0213
rtibia 25.2265
rfoot -15.0051 -16.8273
rtoes -0.20354
lfemur -16.1689 -0.673487 -12.0722
ltibia 26.1397
lfoot -14.1871 13.1044
ltoes -18.6449
121
root -1.52831 17.9707 -1.09741 4.95872 -0.933949 -0.501784
lowerback 11.5879 2.67917 0.213648
upperback 10.1617 3.62902 -3.3349
thorax 4.45095 1.96431 -3.8828
lowerneck 1.87673 -4.40841 -7.30592
upperneck 28.5177 -5.42956 0.0862593
head 8.84138 -3.21638 0.919984
rclavicle 6.48038e-014 -7.39479e-014
rhumerus -0.940139 29.6702 10.3826
rradius 32.7929
rwrist -43.1269
rhand 10.9642 -0.143703
rfingers 7.12502
rthumb 36.0403 -26.4503
lclavicle 6.48038e-014 -7.39479e-014
lhumerus 30.9463 45.2134 12.1205
lradius 116.49
lwrist 72.5413
lhand 25.7267 33.2178
lfingers 7.12502
lthumb 49.8275 54.5306
rfemur -16.4124 -3.46802 26.0003
rtibia 25.4877
rfoot -15.2499 -17.1854
rtoes 0.118376
lfemur -16.447 -0.906922 -12.0669
ltibia 26.2992
lfoot -14.0269 12.8025
ltoes -18.8141
122
root -1.51032 17.9664 -1.11017 4.90985 -0.334137 -0.465209
lowerback 11.8559 2.76646 0.403288
upperback 10.2707 3.75606 -3.15917
thorax 4.43311 2.03574 -3.82456
lowerneck 1.97622 -4.63746 -7.68013
upperneck 28.5475 -5.751 0.251269
head 8.86964 -3.38304 1.01768
rclavicle -2.06736e-014 2.14687e-014
rhumerus -0.547163 28.9869 10.5191
rradius 32.5037
rwrist -42.2013
rhand 11.4659 -0.244528
rfingers 7.12502
rthumb 36.5153 -26.4328
lclavicle -2.06736e-014 2.14687e-014
lhumerus 31.7501 45.6641 11.9108
lradius 116.244
lwrist 72.4046
lhand 25.8434 33.2375
lfingers 7.12502
lthumb 49.9344 54.4947
rfemur -16.5379 -3.70638 25.9051
rtibia 25.7797
rfoot -15.4833 -17.4471
rtoes 0.332536
lfemur -16.6866 -1.10775 -12.1436
ltibia 26.456
lfoot -13.8367 12.5041
ltoes -19.2553
